<svg xmlns="http://www.w3.org/2000/svg" xmlns:xlink="http://www.w3.org/1999/xlink" width="500" zoomAndPan="magnify" viewBox="0 0 375 374.999991" height="500" preserveAspectRatio="xMidYMid meet" version="1.0"><defs><g/><clipPath id="e80ae63a75"><path d="M 78.84375 66.433594 L 296.34375 66.433594 L 296.34375 284 L 78.84375 284 Z M 78.84375 66.433594 " clip-rule="nonzero"/></clipPath><clipPath id="5bcdb15422"><path d="M 80 94 L 295 94 L 295 308.683594 L 80 308.683594 Z M 80 94 " clip-rule="nonzero"/></clipPath></defs><rect x="-37.5" width="450" fill="#ffffff" y="-37.499999" height="449.999989" fill-opacity="1"/><rect x="-37.5" width="450" fill="#020202" y="-37.499999" height="449.999989" fill-opacity="1"/><g clip-path="url(#e80ae63a75)"><path fill="#ffffff" d="M 187.5 283.835938 L 78.84375 175.179688 L 187.5 66.523438 L 296.15625 175.179688 Z M 86.296875 175.179688 L 187.5 276.382812 L 288.703125 175.179688 L 187.5 73.976562 Z M 86.296875 175.179688 " fill-opacity="1" fill-rule="nonzero"/></g><g clip-path="url(#5bcdb15422)"><path fill="#ffffff" d="M 187.5 308.464844 L 80.335938 201.300781 L 187.5 94.132812 L 294.664062 201.300781 Z M 84.804688 201.300781 L 187.5 303.996094 L 290.195312 201.300781 L 187.5 98.605469 Z M 84.804688 201.300781 " fill-opacity="1" fill-rule="nonzero"/></g><g fill="#b1b6bd" fill-opacity="0.302"><g transform="translate(136.727792, 221.43167)"><g><path d="M 42.65625 -12.964844 L 41.949219 -12.378906 C 41.304688 -11.792969 40.601562 -11.558594 39.839844 -11.558594 L 21.648438 -11.558594 C 21.238281 -11.558594 20.886719 -11.675781 20.652344 -11.910156 C 20.359375 -12.144531 20.242188 -12.496094 20.242188 -12.964844 L 20.242188 -53.097656 C 20.242188 -54.449219 20.710938 -55.679688 21.648438 -56.734375 L 21.707031 -56.796875 C 21.886719 -57.089844 21.886719 -57.382812 21.765625 -57.734375 C 21.589844 -58.027344 21.296875 -58.203125 20.945312 -58.203125 L 7.980469 -58.203125 C 7.570312 -58.203125 7.273438 -58.027344 7.15625 -57.734375 C 6.980469 -57.382812 6.980469 -57.089844 7.214844 -56.796875 C 8.15625 -55.738281 8.625 -54.507812 8.625 -53.15625 L 8.625 -1.289062 C 8.625 -0.878906 8.742188 -0.527344 9.035156 -0.292969 C 9.269531 0 9.621094 0.117188 10.03125 0.117188 L 39.839844 0.117188 C 40.601562 0.117188 41.304688 0.410156 41.949219 0.9375 L 42.65625 1.527344 C 42.949219 1.761719 43.242188 1.761719 43.59375 1.585938 C 43.886719 1.46875 44.0625 1.171875 44.0625 0.761719 L 44.0625 -12.203125 C 44.0625 -12.554688 43.886719 -12.847656 43.59375 -13.023438 C 43.242188 -13.144531 42.949219 -13.144531 42.65625 -12.964844 Z M 42.65625 -12.964844 "/></g></g></g><g fill="#b1b6bd" fill-opacity="0.302"><g transform="translate(184.362974, 221.43167)"><g><path d="M 42.65625 -59.730469 C 41.597656 -58.789062 40.425781 -58.320312 39.015625 -58.320312 L 7.980469 -58.320312 C 7.570312 -58.320312 7.273438 -58.144531 7.15625 -57.792969 C 6.980469 -57.441406 6.980469 -57.148438 7.214844 -56.855469 L 7.273438 -56.796875 C 8.214844 -55.738281 8.683594 -54.507812 8.683594 -53.15625 L 8.683594 -5.105469 C 8.683594 -3.695312 8.214844 -2.523438 7.273438 -1.46875 L 7.214844 -1.40625 C 6.980469 -1.054688 6.980469 -0.761719 7.15625 -0.46875 C 7.273438 -0.117188 7.570312 0 7.980469 0 L 20.945312 0 C 21.296875 0 21.589844 -0.117188 21.765625 -0.46875 C 21.886719 -0.761719 21.886719 -1.054688 21.707031 -1.40625 C 20.769531 -2.464844 20.300781 -3.636719 20.300781 -5.046875 L 20.300781 -22.121094 C 20.300781 -22.414062 20.417969 -22.707031 20.652344 -22.941406 C 20.886719 -23.175781 21.179688 -23.351562 21.53125 -23.351562 L 26.988281 -23.351562 C 28.398438 -23.351562 29.570312 -22.824219 30.570312 -21.886719 L 30.628906 -21.886719 C 30.921875 -21.648438 31.214844 -21.648438 31.566406 -21.824219 C 31.917969 -21.945312 32.09375 -22.238281 32.09375 -22.648438 L 32.09375 -35.613281 C 32.09375 -35.964844 31.917969 -36.257812 31.566406 -36.4375 C 31.214844 -36.613281 30.921875 -36.613281 30.628906 -36.375 C 29.570312 -35.4375 28.398438 -34.96875 26.988281 -34.96875 L 21.53125 -34.96875 C 21.179688 -34.96875 20.886719 -35.085938 20.652344 -35.320312 C 20.417969 -35.554688 20.300781 -35.847656 20.300781 -36.199219 L 20.300781 -45.414062 C 20.300781 -45.765625 20.417969 -46.058594 20.652344 -46.292969 C 20.886719 -46.527344 21.179688 -46.644531 21.53125 -46.644531 L 39.015625 -46.644531 C 40.425781 -46.644531 41.597656 -46.175781 42.65625 -45.238281 C 42.949219 -45 43.242188 -45 43.59375 -45.179688 C 43.945312 -45.296875 44.121094 -45.589844 44.121094 -46 L 44.121094 -58.964844 C 44.121094 -59.316406 43.945312 -59.609375 43.59375 -59.789062 C 43.242188 -59.90625 42.949219 -59.90625 42.65625 -59.730469 Z M 42.65625 -59.730469 "/></g></g></g><g fill="#b1b6bd" fill-opacity="0.502"><g transform="translate(138.280674, 222.090821)"><g><path d="M 42.65625 -12.964844 L 41.949219 -12.378906 C 41.304688 -11.792969 40.601562 -11.558594 39.839844 -11.558594 L 21.648438 -11.558594 C 21.238281 -11.558594 20.886719 -11.675781 20.652344 -11.910156 C 20.359375 -12.144531 20.242188 -12.496094 20.242188 -12.964844 L 20.242188 -53.097656 C 20.242188 -54.449219 20.710938 -55.679688 21.648438 -56.734375 L 21.707031 -56.796875 C 21.886719 -57.089844 21.886719 -57.382812 21.765625 -57.734375 C 21.589844 -58.027344 21.296875 -58.203125 20.945312 -58.203125 L 7.980469 -58.203125 C 7.570312 -58.203125 7.273438 -58.027344 7.15625 -57.734375 C 6.980469 -57.382812 6.980469 -57.089844 7.214844 -56.796875 C 8.15625 -55.738281 8.625 -54.507812 8.625 -53.15625 L 8.625 -1.289062 C 8.625 -0.878906 8.742188 -0.527344 9.035156 -0.292969 C 9.269531 0 9.621094 0.117188 10.03125 0.117188 L 39.839844 0.117188 C 40.601562 0.117188 41.304688 0.410156 41.949219 0.9375 L 42.65625 1.527344 C 42.949219 1.761719 43.242188 1.761719 43.59375 1.585938 C 43.886719 1.46875 44.0625 1.171875 44.0625 0.761719 L 44.0625 -12.203125 C 44.0625 -12.554688 43.886719 -12.847656 43.59375 -13.023438 C 43.242188 -13.144531 42.949219 -13.144531 42.65625 -12.964844 Z M 42.65625 -12.964844 "/></g></g></g><g fill="#b1b6bd" fill-opacity="0.502"><g transform="translate(185.915856, 222.090821)"><g><path d="M 42.65625 -59.730469 C 41.597656 -58.789062 40.425781 -58.320312 39.015625 -58.320312 L 7.980469 -58.320312 C 7.570312 -58.320312 7.273438 -58.144531 7.15625 -57.792969 C 6.980469 -57.441406 6.980469 -57.148438 7.214844 -56.855469 L 7.273438 -56.796875 C 8.214844 -55.738281 8.683594 -54.507812 8.683594 -53.15625 L 8.683594 -5.105469 C 8.683594 -3.695312 8.214844 -2.523438 7.273438 -1.46875 L 7.214844 -1.40625 C 6.980469 -1.054688 6.980469 -0.761719 7.15625 -0.46875 C 7.273438 -0.117188 7.570312 0 7.980469 0 L 20.945312 0 C 21.296875 0 21.589844 -0.117188 21.765625 -0.46875 C 21.886719 -0.761719 21.886719 -1.054688 21.707031 -1.40625 C 20.769531 -2.464844 20.300781 -3.636719 20.300781 -5.046875 L 20.300781 -22.121094 C 20.300781 -22.414062 20.417969 -22.707031 20.652344 -22.941406 C 20.886719 -23.175781 21.179688 -23.351562 21.53125 -23.351562 L 26.988281 -23.351562 C 28.398438 -23.351562 29.570312 -22.824219 30.570312 -21.886719 L 30.628906 -21.886719 C 30.921875 -21.648438 31.214844 -21.648438 31.566406 -21.824219 C 31.917969 -21.945312 32.09375 -22.238281 32.09375 -22.648438 L 32.09375 -35.613281 C 32.09375 -35.964844 31.917969 -36.257812 31.566406 -36.4375 C 31.214844 -36.613281 30.921875 -36.613281 30.628906 -36.375 C 29.570312 -35.4375 28.398438 -34.96875 26.988281 -34.96875 L 21.53125 -34.96875 C 21.179688 -34.96875 20.886719 -35.085938 20.652344 -35.320312 C 20.417969 -35.554688 20.300781 -35.847656 20.300781 -36.199219 L 20.300781 -45.414062 C 20.300781 -45.765625 20.417969 -46.058594 20.652344 -46.292969 C 20.886719 -46.527344 21.179688 -46.644531 21.53125 -46.644531 L 39.015625 -46.644531 C 40.425781 -46.644531 41.597656 -46.175781 42.65625 -45.238281 C 42.949219 -45 43.242188 -45 43.59375 -45.179688 C 43.945312 -45.296875 44.121094 -45.589844 44.121094 -46 L 44.121094 -58.964844 C 44.121094 -59.316406 43.945312 -59.609375 43.59375 -59.789062 C 43.242188 -59.90625 42.949219 -59.90625 42.65625 -59.730469 Z M 42.65625 -59.730469 "/></g></g></g><g fill="#ffffff" fill-opacity="1"><g transform="translate(139.833555, 222.749985)"><g><path d="M 42.65625 -12.964844 L 41.949219 -12.378906 C 41.304688 -11.792969 40.601562 -11.558594 39.839844 -11.558594 L 21.648438 -11.558594 C 21.238281 -11.558594 20.886719 -11.675781 20.652344 -11.910156 C 20.359375 -12.144531 20.242188 -12.496094 20.242188 -12.964844 L 20.242188 -53.097656 C 20.242188 -54.449219 20.710938 -55.679688 21.648438 -56.734375 L 21.707031 -56.796875 C 21.886719 -57.089844 21.886719 -57.382812 21.765625 -57.734375 C 21.589844 -58.027344 21.296875 -58.203125 20.945312 -58.203125 L 7.980469 -58.203125 C 7.570312 -58.203125 7.273438 -58.027344 7.15625 -57.734375 C 6.980469 -57.382812 6.980469 -57.089844 7.214844 -56.796875 C 8.15625 -55.738281 8.625 -54.507812 8.625 -53.15625 L 8.625 -1.289062 C 8.625 -0.878906 8.742188 -0.527344 9.035156 -0.292969 C 9.269531 0 9.621094 0.117188 10.03125 0.117188 L 39.839844 0.117188 C 40.601562 0.117188 41.304688 0.410156 41.949219 0.9375 L 42.65625 1.527344 C 42.949219 1.761719 43.242188 1.761719 43.59375 1.585938 C 43.886719 1.46875 44.0625 1.171875 44.0625 0.761719 L 44.0625 -12.203125 C 44.0625 -12.554688 43.886719 -12.847656 43.59375 -13.023438 C 43.242188 -13.144531 42.949219 -13.144531 42.65625 -12.964844 Z M 42.65625 -12.964844 "/></g></g></g><g fill="#ffffff" fill-opacity="1"><g transform="translate(187.468737, 222.749985)"><g><path d="M 42.65625 -59.730469 C 41.597656 -58.789062 40.425781 -58.320312 39.015625 -58.320312 L 7.980469 -58.320312 C 7.570312 -58.320312 7.273438 -58.144531 7.15625 -57.792969 C 6.980469 -57.441406 6.980469 -57.148438 7.214844 -56.855469 L 7.273438 -56.796875 C 8.214844 -55.738281 8.683594 -54.507812 8.683594 -53.15625 L 8.683594 -5.105469 C 8.683594 -3.695312 8.214844 -2.523438 7.273438 -1.46875 L 7.214844 -1.40625 C 6.980469 -1.054688 6.980469 -0.761719 7.15625 -0.46875 C 7.273438 -0.117188 7.570312 0 7.980469 0 L 20.945312 0 C 21.296875 0 21.589844 -0.117188 21.765625 -0.46875 C 21.886719 -0.761719 21.886719 -1.054688 21.707031 -1.40625 C 20.769531 -2.464844 20.300781 -3.636719 20.300781 -5.046875 L 20.300781 -22.121094 C 20.300781 -22.414062 20.417969 -22.707031 20.652344 -22.941406 C 20.886719 -23.175781 21.179688 -23.351562 21.53125 -23.351562 L 26.988281 -23.351562 C 28.398438 -23.351562 29.570312 -22.824219 30.570312 -21.886719 L 30.628906 -21.886719 C 30.921875 -21.648438 31.214844 -21.648438 31.566406 -21.824219 C 31.917969 -21.945312 32.09375 -22.238281 32.09375 -22.648438 L 32.09375 -35.613281 C 32.09375 -35.964844 31.917969 -36.257812 31.566406 -36.4375 C 31.214844 -36.613281 30.921875 -36.613281 30.628906 -36.375 C 29.570312 -35.4375 28.398438 -34.96875 26.988281 -34.96875 L 21.53125 -34.96875 C 21.179688 -34.96875 20.886719 -35.085938 20.652344 -35.320312 C 20.417969 -35.554688 20.300781 -35.847656 20.300781 -36.199219 L 20.300781 -45.414062 C 20.300781 -45.765625 20.417969 -46.058594 20.652344 -46.292969 C 20.886719 -46.527344 21.179688 -46.644531 21.53125 -46.644531 L 39.015625 -46.644531 C 40.425781 -46.644531 41.597656 -46.175781 42.65625 -45.238281 C 42.949219 -45 43.242188 -45 43.59375 -45.179688 C 43.945312 -45.296875 44.121094 -45.589844 44.121094 -46 L 44.121094 -58.964844 C 44.121094 -59.316406 43.945312 -59.609375 43.59375 -59.789062 C 43.242188 -59.90625 42.949219 -59.90625 42.65625 -59.730469 Z M 42.65625 -59.730469 "/></g></g></g></svg>